<svg xmlns="http://www.w3.org/2000/svg" viewBox="0 0 32 32">
<path d="m25.34,10h-7.68c-.92,0-1.66-.9-1.66-2s.74-2,1.66-2h7.68c.92,0,1.66.9,1.66,2s-.74,2-1.66,2Z"/>
<path d="m13,7v2h-7v-2h7m1-1H5v4h9v-4h0Z"/>
<path d="m16.51,18H6.49c-.82,0-1.49-.9-1.49-2s.66-2,1.49-2h10.03c.82,0,1.49.9,1.49,2s-.66,2-1.49,2Z"/>
<path d="m26,15v2h-5v-2h5m1-1h-7v4h7v-4h0Z"/>
<path d="m12,23v2h-6v-2h6m1-1H5v4h8v-4h0Z"/>
<path d="m25.5,26h-9c-.83,0-1.5-.9-1.5-2s.67-2,1.5-2h9c.83,0,1.5.9,1.5,2s-.67,2-1.5,2Z"/>
<polygon points="2 11 0 11 0 0 11 0 11 2 2 2 2 11"/>
<polygon points="32 11 30 11 30 2 21 2 21 0 32 0 32 11"/>
<polygon points="32 32 21 32 21 30 30 30 30 21 32 21 32 32"/>
<polygon points="11 32 0 32 0 21 2 21 2 30 11 30 11 32"/>
</svg>
